# xmcd
#
# Track frame offsets:
#	150
#	11981
#	23583
#	42955
#	60254
#	72467
#	86977
#	111629
#	147275
#	160812
#	173420
#	185527
#	196934
#	208434
#
# Disc length: 2945 seconds
# Revision: 0
# Processed by: cddbd v1.5.2PL0 Copyright (c) Steve Scherf et al.
# Submitted via: dBpowerAMP V12.0
#
DISCID=ca0b7f0e
DTITLE=Canned Heat - Future Blues
DYEAR=1970
DGENRE=Blues
TTITLE0=Sugar Bee
TTITLE1=Shake It And Break It
TTITLE2=That's All Right, Mama
TTITLE3=My Time Ain't Long
TTITLE4=Skat
TTITLE5=Let's Work Together
TTITLE6=London Blues
TTITLE7=So Sad (The World's In A Tangle)
TTITLE8=Future Blues
TTITLE9=Let's Work Together (Single Version/Mono)
TTITLE10=Skat (Single Version/Mono)
TTITLE11=Wooly Bully
TTITLE12=Christmas Blues
TTITLE13=The Chipmunk Song
EXTD=
EXTT0=
EXTT1=
EXTT2=
EXTT3=
EXTT4=
EXTT5=
EXTT6=
EXTT7=
EXTT8=
EXTT9=
EXTT10=
EXTT11=
EXTT12=
EXTT13=
PLAYORDER=
